<?xml version="1.0" standalone="no"?> <!DOCTYPE svg PUBLIC "-//W3C//DTD SVG 20010904//EN" "http://www.w3.org/TR/2001/REC-SVG-20010904/DTD/svg10.dtd"> <svg version="1.0" xmlns="http://www.w3.org/2000/svg" width="288.000000pt" height="976.000000pt" viewBox="0 0 288.000000 976.000000" preserveAspectRatio="xMidYMid meet"> <g transform="translate(0.000000,976.000000) scale(0.100000,-0.100000)" fill="#3a6164" stroke="none"> <path d="M2810 8895 c-7 -9 -42 -32 -77 -53 -35 -20 -79 -46 -98 -57 -19 -11 -174 -101 -345 -200 -171 -99 -326 -189 -344 -200 -66 -39 -141 -82 -156 -89 -8 -4 -32 -17 -52 -29 -20 -12 -94 -55 -165 -95 -70 -40 -135 -77 -143 -82 -8 -5 -42 -25 -75 -45 -33 -19 -67 -40 -75 -45 -8 -5 -73 -42 -144 -82 -71 -40 -145 -83 -165 -95 -20 -12 -49 -29 -66 -37 -16 -9 -47 -26 -67 -39 -21 -12 -79 -46 -130 -75 -51 -29 -100 -57 -108 -62 -8 -6 -26 -16 -40 -22 -14 -7 -45 -26 -70 -43 -25 -17 -56 -36 -70 -43 -14 -7 -43 -23 -65 -37 -22 -13 -53 -31 -70 -39 -16 -9 -48 -27 -70 -40 -22 -14 -53 -32 -70 -42 -16 -9 -35 -23 -43 -30 -7 -8 -19 -14 -26 -14 -7 0 -21 -9 -31 -20 -10 -11 -24 -20 -32 -20 -22 0 -19 -1008 4 -1025 16 -12 17 -142 15 -1927 l-2 -1916 27 -18 c16 -11 39 -25 53 -31 14 -7 57 -31 95 -53 39 -23 88 -50 110 -61 22 -12 58 -31 80 -44 22 -13 54 -31 70 -40 17 -8 48 -26 70 -39 22 -13 72 -40 110 -61 39 -20 88 -47 110 -60 22 -13 51 -29 65 -35 14 -6 32 -17 40 -25 8 -7 26 -16 39 -20 14 -4 46 -23 72 -41 26 -18 59 -36 73 -40 14 -3 30 -12 37 -20 6 -8 16 -14 21 -14 5 0 43 -20 86 -44 42 -24 113 -62 157 -86 44 -23 87 -48 95 -54 8 -7 44 -27 80 -45 36 -19 83 -44 105 -57 22 -13 47 -27 55 -31 8 -3 65 -34 125 -68 61 -34 117 -65 125 -69 8 -3 32 -16 53 -29 20 -12 70 -39 110 -61 39 -21 91 -51 115 -67 24 -16 49 -29 56 -29 7 0 25 -9 39 -20 14 -11 28 -20 31 -20 3 0 89 -47 191 -105 101 -58 187 -105 190 -105 3 0 31 -18 62 -40 32 -22 68 -40 81 -40 l22 0 0 240 c0 228 -1 240 -19 240 -10 0 -29 8 -42 18 -37 29 -260 157 -394 227 -16 9 -48 27 -70 40 -22 14 -47 28 -55 31 -8 4 -51 28 -95 52 -44 25 -100 56 -125 69 -25 13 -52 28 -60 33 -29 17 -156 88 -215 120 -33 17 -78 42 -100 55 -22 13 -58 33 -80 44 -57 29 -166 89 -179 100 -6 4 -56 32 -111 61 -96 51 -121 65 -210 116 -22 12 -53 30 -70 38 -16 9 -48 27 -70 40 -22 13 -76 43 -120 65 -44 23 -96 51 -115 63 -47 28 -160 89 -239 128 l-64 32 3 266 c1 147 -5 854 -13 1572 -8 718 -17 1585 -19 1926 l-5 622 61 32 c34 17 79 42 101 55 22 13 54 31 70 40 17 8 48 27 70 40 22 14 51 30 65 37 14 7 40 23 58 35 18 12 52 31 75 43 23 12 59 32 79 44 20 11 145 84 278 161 133 77 258 150 278 162 20 12 51 30 67 38 17 9 48 27 70 40 22 14 54 32 72 42 17 10 129 74 247 143 119 69 224 130 234 135 9 6 52 30 95 55 43 25 95 55 115 67 20 13 48 27 62 33 14 6 32 17 40 25 8 7 40 26 70 42 70 37 175 103 202 126 12 9 29 17 40 17 17 0 18 13 18 240 l0 240 -29 0 c-16 0 -34 -7 -41 -15z"/> <path d="M2780 7592 c-31 -22 -67 -45 -82 -53 -24 -13 -101 -58 -196 -116 -21 -12 -44 -25 -52 -29 -14 -7 -75 -42 -155 -89 -18 -11 -79 -47 -135 -80 -57 -33 -119 -70 -139 -82 -20 -12 -49 -29 -66 -37 -16 -9 -48 -27 -70 -41 -22 -13 -53 -32 -70 -40 -16 -9 -46 -26 -67 -38 -142 -85 -174 -104 -202 -120 -17 -10 -44 -26 -61 -37 -16 -11 -47 -29 -68 -40 -21 -12 -56 -40 -78 -62 l-40 -42 2 -825 2 -826 -49 -18 c-27 -11 -72 -25 -99 -32 -28 -7 -60 -17 -70 -23 -20 -11 -80 -31 -165 -56 -128 -39 -179 -82 -180 -154 -1 -117 95 -172 215 -126 22 9 65 25 95 35 30 11 59 24 64 29 6 6 17 10 26 10 9 0 33 9 54 19 21 11 52 23 69 27 18 4 48 15 67 25 19 11 43 19 53 19 10 0 31 7 46 15 16 8 47 17 69 21 78 12 67 -130 75 1038 l4 710 64 33 c35 19 82 45 104 58 22 13 54 31 70 39 17 9 42 24 57 33 14 10 76 47 138 83 62 36 127 74 146 85 18 11 111 65 205 120 94 55 186 109 204 120 19 11 60 36 92 55 32 19 84 51 115 72 31 21 68 38 83 38 l25 0 0 160 c0 187 -2 190 -100 122z"/> <path d="M2403 6158 c-67 -34 -69 -45 -63 -348 3 -146 5 -299 5 -340 l0 -74 -45 -13 c-25 -7 -54 -17 -65 -22 -11 -6 -36 -13 -55 -17 -19 -4 -44 -12 -55 -20 -11 -7 -38 -16 -60 -20 -22 -4 -49 -13 -60 -20 -11 -6 -36 -15 -55 -19 -19 -4 -44 -13 -55 -20 -11 -7 -36 -16 -55 -20 -19 -4 -44 -13 -56 -20 -12 -8 -37 -17 -57 -20 -57 -11 -64 -26 -70 -158 -6 -128 3 -158 43 -137 10 6 27 10 37 10 10 0 35 9 56 20 20 11 43 20 50 20 7 0 28 8 47 19 19 10 53 21 75 25 22 5 51 14 65 21 23 12 71 30 230 88 30 11 73 28 96 38 23 11 48 19 57 19 9 0 31 6 49 14 18 8 53 21 78 28 l45 13 11 450 c7 264 8 457 3 467 -9 17 -107 58 -137 57 -9 0 -36 -10 -59 -21z"/> <path d="M2816 5571 c-16 -11 -44 -22 -63 -26 -52 -10 -61 -34 -59 -165 l1 -115 38 -3 c25 -2 50 4 73 17 19 12 44 21 55 21 18 0 19 8 19 145 0 161 -3 166 -64 126z"/> <path d="M2515 5085 c-27 -14 -56 -25 -63 -25 -7 0 -36 -12 -64 -26 l-51 -26 6 -192 c8 -219 7 -221 -63 -235 -58 -12 -138 -39 -172 -57 -14 -8 -33 -14 -42 -14 -9 0 -33 -7 -54 -17 -20 -9 -55 -22 -77 -29 -81 -25 -141 -47 -181 -65 -22 -11 -47 -19 -56 -19 -29 0 -35 -24 -41 -147 -5 -105 -4 -124 10 -131 18 -11 84 2 116 22 12 8 38 17 57 21 19 4 44 13 55 20 11 7 36 16 55 20 19 4 44 13 55 20 11 7 36 16 55 20 19 4 51 16 70 26 19 11 43 19 52 19 10 0 35 9 55 20 21 11 47 20 58 20 12 0 26 5 31 10 14 14 174 70 200 70 61 0 62 6 69 347 3 172 8 318 11 326 5 14 -20 47 -34 47 -4 0 -29 -12 -57 -25z"/> <path d="M2790 4769 c-105 -49 -95 -34 -97 -134 -1 -50 -4 -104 -6 -121 -9 -56 37 -71 106 -34 20 11 48 20 62 20 l25 0 0 145 c0 166 0 166 -90 124z"/> <path d="M1480 4719 c-19 -10 -44 -19 -55 -19 -12 0 -30 -7 -41 -15 -10 -8 -27 -15 -36 -15 -47 -1 -51 -22 -44 -220 8 -213 7 -217 -42 -226 -21 -4 -48 -12 -62 -19 -14 -7 -43 -16 -65 -19 -22 -4 -49 -13 -60 -20 -11 -7 -36 -16 -55 -19 -19 -4 -51 -14 -70 -23 -19 -9 -46 -22 -59 -28 -14 -6 -36 -33 -49 -59 -68 -131 84 -233 239 -160 24 12 55 24 69 28 14 5 41 16 60 26 19 11 44 19 55 19 11 0 34 9 50 20 17 11 40 20 53 20 12 0 39 9 59 20 21 11 52 20 69 20 61 0 69 22 69 199 1 86 5 236 9 334 l9 177 -34 -1 c-19 0 -50 -9 -69 -20z"/> <path d="M2505 4290 c-22 -11 -56 -25 -76 -32 -20 -6 -48 -20 -62 -32 l-26 -21 -3 -210 c-2 -160 1 -216 11 -235 17 -31 72 -90 84 -90 8 0 134 -72 313 -178 34 -21 71 -45 81 -54 48 -44 53 -31 53 142 0 144 -2 160 -17 160 -9 0 -33 10 -52 23 -42 27 -56 35 -138 82 -83 47 -82 43 -74 250 9 228 1 244 -94 195z"/> <path d="M1475 3925 c-27 -13 -58 -25 -68 -25 -27 0 -94 -37 -101 -55 -3 -9 -6 -146 -6 -304 0 -379 -23 -336 261 -500 118 -68 225 -130 239 -138 54 -32 103 -60 200 -118 55 -33 120 -70 143 -83 23 -12 56 -31 72 -42 17 -11 44 -26 60 -35 17 -8 48 -26 70 -40 22 -13 51 -30 65 -37 22 -11 124 -71 170 -99 8 -5 29 -16 45 -25 29 -16 104 -63 176 -111 76 -50 79 -44 79 137 l0 160 -24 0 c-13 0 -54 21 -92 46 -38 26 -140 88 -227 138 -87 50 -179 103 -205 119 -26 15 -56 32 -67 38 -11 5 -36 20 -57 32 -69 42 -449 262 -501 290 -29 16 -71 40 -94 53 l-43 25 7 290 c7 344 9 339 -102 284z"/> </g> </svg>